<?xml version="1.0" encoding="UTF-8"?>
<svg id="Layer_1" data-name="Layer 1" xmlns="http://www.w3.org/2000/svg" viewBox="0 0 3770.22 1351.19">
  <defs>
    <style>
      .cls-1 {
        fill: #231f20;
      }

      .cls-2 {
        fill: #c02426;
      }
    </style>
  </defs>
  <g>
    <path class="cls-1" d="M3082.04,181.29h-334.26l-54.07,88.48H698.01l-78.65-88.48H142.55L0,441.81l211.37,211.37,265.44-4.91,66.86,2.87,64.75,79.14-68.19,145.81-210.88,401.36,54.07,73.73h383.41l211.37-462.06h417.82l49.16-68.82h1160.07l49.15-132.72h-707.84l-49.16-73.73h983.11l201.54-432.57ZM1442.44,678.88l-77.66,129.44h-331.37v-34.52l82.84-172.59,28.69-4.1c-23.86,90.09,35.16,159.43,35.16,159.43h37.97c-30.45-104.4,10.86-158.69,24.89-173.43l30.34-4.33h141.52l27.61,55.23v44.87ZM2777.26,443.94H261.28l12.11-69.64h2528.09l-24.22,69.64Z"/>
    <polygon class="cls-1" points="760.84 166.52 845.62 0 1293.71 0 1345.18 73.04 1784.19 73.04 1747.86 166.52 760.84 166.52"/>
  </g>
  <path class="cls-2" d="M3383.6,196.22c66.53,17.58,141.29.17,193.21-45.01-16.75,60.2-4.27,127.82,32.86,178.08,37.13,50.26,98.09,82.07,160.56,83.76-68.11,15.29-112.74,85.31-120.99,154.63-8.24,69.32,12.09,138.49,32.19,205.34-46.48-51.38-125.78-69.97-190.25-44.58-64.47,25.38-109.81,93.04-108.78,162.32-17.69-69.91-67.79-130.9-132.93-161.84-65.14-30.94-144.07-31.23-209.43-.76,73.77-70.23,79.84-199.64,12.97-276.47,79.74-49.89,69.42-120.82,21.52-201.76,36.25,11.19,117.22-46.16,142.86-74.13,23.62-25.77,27-59.68,27.34-92.54,33.88,52.21,76.02,96.34,138.88,112.95Z"/>
</svg>