<?xml version="1.0" encoding="UTF-8"?>
<svg id="Layer_1" data-name="Layer 1" xmlns="http://www.w3.org/2000/svg" viewBox="0 0 160.72 161.25">
  <defs>
    <style>
      .cls-1 {
        fill: #c7c7c7;
      }

      .cls-2 {
        fill: #161616;
      }
    </style>
  </defs>
  <path class="cls-1" d="M50.15,62.31c10.92,19.64,27.32,36.42,46.93,47.54l1.56-.5c4.37-6.32,9.36-15.51,18.13-15.74,3.78-.1,26.11,7.84,30.6,9.87,27.85,12.6,7.79,58.29-20.72,57.76-21.42-.39-60.4-23.32-76.52-37.49C29.23,105.39-2.34,58.24.14,29.77,2.31,4.78,44.69-13.9,57.32,13.65c1.84,4.01,9.83,26.93,9.84,30.15.02,7.88-10.34,15.78-17.01,18.51ZM33.91,9.56c-6.04.88-16.55,5.75-20.17,10.82-7.14,10.01-4.08,18.12-.83,28.68,10.01,32.45,33.57,63.58,62.32,81.59,12.4,7.77,42.81,23.09,56.94,20.13,14.51-3.04,26.73-29.8,12.86-37.95-2.08-1.22-26.89-9.74-28.38-9.59-6.94.71-10.45,19.49-18.77,17.81-6.07-1.23-25.08-16-30.25-20.77-5.92-5.46-29.18-32.64-28.49-39.46.64-6.34,19.1-9.67,17.82-18.76-.47-3.34-7.59-23.98-9.34-26.7-3.16-4.91-7.97-6.65-13.7-5.81Z"/>
  <path class="cls-2" d="M33.91,9.56c5.73-.84,10.54.9,13.7,5.81,1.75,2.71,8.87,23.36,9.34,26.7,1.28,9.09-17.18,12.42-17.82,18.76-.69,6.82,22.56,34,28.49,39.46,5.18,4.77,24.19,19.54,30.25,20.77,8.32,1.68,11.83-17.1,18.77-17.81,1.49-.15,26.31,8.37,28.38,9.59,13.87,8.15,1.65,34.91-12.86,37.95-14.13,2.96-44.55-12.36-56.94-20.13-28.74-18.01-52.31-49.15-62.32-81.59-3.26-10.56-6.31-18.67.83-28.68,3.62-5.07,14.13-9.94,20.17-10.82Z"/>
</svg>