<?xml version="1.0" encoding="UTF-8"?>
<svg id="Layer_1" data-name="Layer 1" xmlns="http://www.w3.org/2000/svg" viewBox="0 0 165.99 165.96">
  <defs>
    <style>
      .cls-1 {
        fill: #c7c7c7;
      }

      .cls-2 {
        fill: #161616;
      }
    </style>
  </defs>
  <path class="cls-1" d="M165.99,82.98c0,45.83-37.16,82.98-83,82.98S0,128.81,0,82.98,37.16,0,83,0s83,37.15,83,82.98ZM109.73,52.37c-1.33-12.3-12.24-43.49-27.4-42.91-13.49.51-25.61,31.26-25.57,42.91h52.97ZM16.78,52.37h28.49l6.75-21.23,8.23-17.75c-18.83,5.91-35.91,20.71-43.47,38.98ZM148.71,52.37c-3.94-13.35-16.76-25.78-28.68-32.78-4.2-2.47-10.71-6.21-15.29-5.7,8.71,10.9,12.3,25.01,14.99,38.48h28.98ZM44.77,61.37H12.78c-3.98,14-4.26,28.97,0,42.97h31.98v-42.97ZM111.73,104.34c1.09-13.69,1.97-27.66-.19-41.28l-1.31-1.69h-55.47c-2.37,14.23-2.37,28.74,0,42.97h56.97ZM153.71,104.34c2.55-14.13,5.16-29.61-1.5-42.97h-30.48v42.97h31.98ZM45.27,113.33h-26.99l-1.07,2.04c8.68,17.05,24.28,31.73,43.04,36.95l-7.25-14.74-7.73-24.25ZM56.76,113.33c-.39,11.78,12.25,42.42,25.5,43.03,12.07.56,20.76-18.58,23.93-28.08.64-1.91,5.22-14.95,2.04-14.95h-51.47ZM148.71,113.33h-27.49c-3.82,7.2-4.77,16.08-8.01,23.97-1.85,4.51-4.52,9.62-7.47,13.52-.25,1.53-.04,1.73,1.49,1.5,5.21-.78,19.17-9.8,23.49-13.49,3.1-2.65,20.94-22.64,17.98-25.49Z"/>
  <path class="cls-2" d="M111.73,104.34h-56.97c-2.37-14.23-2.37-28.74,0-42.97h55.47l1.31,1.69c2.15,13.63,1.28,27.6.19,41.28Z"/>
  <path class="cls-2" d="M56.76,113.33h51.47c3.17,0-1.4,13.03-2.04,14.95-3.18,9.51-11.86,28.64-23.93,28.08-13.25-.61-25.89-31.25-25.5-43.03Z"/>
  <path class="cls-2" d="M109.73,52.37h-52.97c-.03-11.66,12.08-42.4,25.57-42.91,15.16-.58,26.07,30.62,27.4,42.91Z"/>
  <path class="cls-2" d="M44.77,61.37v42.97H12.78c-4.26-14-3.98-28.97,0-42.97h31.98Z"/>
  <path class="cls-2" d="M153.71,104.34h-31.98v-42.97h30.48c6.66,13.36,4.05,28.84,1.5,42.97Z"/>
  <path class="cls-2" d="M45.27,113.33l7.73,24.25,7.25,14.74c-18.76-5.21-34.36-19.89-43.04-36.95l1.07-2.04h26.99Z"/>
  <path class="cls-2" d="M148.71,113.33c2.96,2.85-14.88,22.85-17.98,25.49-4.33,3.69-18.28,12.71-23.49,13.49-1.53.23-1.74.03-1.49-1.5,2.95-3.91,5.61-9.02,7.47-13.52,3.24-7.89,4.19-16.77,8.01-23.97h27.49Z"/>
  <path class="cls-2" d="M148.71,52.37h-28.98c-2.68-13.47-6.28-27.57-14.99-38.48,4.58-.51,11.09,3.22,15.29,5.7,11.92,7.01,24.74,19.43,28.68,32.78Z"/>
  <path class="cls-2" d="M16.78,52.37c7.56-18.27,24.64-33.08,43.47-38.98l-8.23,17.75-6.75,21.23h-28.49Z"/>
</svg>