<?xml version="1.0" encoding="UTF-8"?>
<svg id="Layer_1" data-name="Layer 1" xmlns="http://www.w3.org/2000/svg" viewBox="0 0 63.81 98.38">
  <path d="M19.64,23.24l4.11,46.53c.19,2.14,2.03,3.78,4.24,3.78h7.26c1.81,0,3.32-1.33,3.49-3.08l4.66-47.12c.25-2.56-1.82-4.78-4.47-4.78h-14.88c-2.59,0-4.63,2.16-4.41,4.67Z"/>
  <path d="M27.3,80.46h9.32c2.59,0,4.7,1.75,4.7,3.92v10.09c0,2.16-2.1,3.91-4.69,3.91h-9.32c-2.6,0-4.7-1.76-4.7-3.92v-10.08c0-2.16,2.1-3.92,4.7-3.92Z"/>
  <path d="M.01,9.44c.44-3.2,4.07-3.28,6.14-1.46,2.53,1.88,5.17,3.77,7.6,5.74,1.4,1.03,3.06,3.79.93,4.21-.66.13-2.53-.41-3.18-.61-3.24-1.11-6.28-2.98-9.31-4.72C1.09,11.96-.05,10.96,0,9.61v-.17Z"/>
  <path d="M17.77.61c1.57-1.49,3.5-.02,3.82,1.8.54,2.04,1.13,4.13,1.58,6.18.31,1.12.02,3.26-1.27,2.59-.4-.21-1.15-1.27-1.41-1.65-1.24-1.93-2.04-4.19-2.9-6.36-.31-.79-.49-1.79.1-2.47l.08-.09Z"/>
  <path d="M2.26,28.8c-1.09-1.87.8-3.41,2.64-3.3,2.11-.05,4.28-.13,6.38-.09,1.17-.03,3.17.74,2.22,1.84-.3.34-1.5.83-1.93.99-2.17.75-4.55,1.01-6.86,1.34-.84.12-1.85.06-2.38-.68l-.07-.1Z"/>
  <path d="M63.8,9.44c-.44-3.2-4.07-3.28-6.14-1.46-2.53,1.88-5.17,3.77-7.6,5.74-1.4,1.03-3.06,3.79-.93,4.21.66.13,2.53-.41,3.18-.61,3.24-1.11,6.28-2.98,9.31-4.72,1.1-.63,2.23-1.63,2.18-2.98v-.17Z"/>
  <path d="M46.05.61c-1.57-1.49-3.5-.02-3.82,1.8-.54,2.04-1.13,4.13-1.58,6.18-.31,1.12-.02,3.26,1.27,2.59.4-.21,1.15-1.27,1.41-1.65,1.24-1.93,2.04-4.19,2.9-6.36.31-.79.49-1.79-.1-2.47l-.08-.09Z"/>
  <path d="M61.55,28.8c1.09-1.87-.8-3.41-2.64-3.3-2.11-.05-4.28-.13-6.38-.09-1.17-.03-3.17.74-2.22,1.84.3.34,1.5.83,1.93.99,2.17.75,4.55,1.01,6.86,1.34.84.12,1.85.06,2.38-.68l.07-.1Z"/>
</svg>