<?xml version="1.0" encoding="UTF-8"?>
<svg id="Layer_1" data-name="Layer 1" xmlns="http://www.w3.org/2000/svg" viewBox="0 0 178.89 131">
  <defs>
    <style>
      .cls-1 {
        fill: #c7c7c7;
      }

      .cls-2 {
        fill: #161616;
      }
    </style>
  </defs>
  <path class="cls-1" d="M15.68.28l145.73-.28c8.67.45,15.65,6.83,16.5,15.48,3.11,31.81-2.45,68.65-.03,101-1.24,7.87-7.62,13.74-15.47,14.52l-150.02-1c-7.11-3.12-10.67-8.91-11.43-16.55-3.03-30.2,2.23-65.2,0-95.91C1.89,8.37,6.62,2.39,15.68.28ZM16.68,7.26c-3.02,1.21-8.79,3.34-5.78,7.31l73.3,63.63c3.66,1.38,9.34,1.48,12.67-.77L169.79,13.39c.34-1.99-5.97-6.94-8.4-6.38l-144.72.25ZM7.95,23.02v91.43c0,.39,1.3,1.51,1.01,2.49l2.01-.47,48.93-48.99L7.95,23.02ZM170.87,116.96V23.02l-50.99,43.48,50.99,50.45ZM16.45,123.95h146.92l1.01-2-49.48-49.53c-1.74-.78-11.96,9.94-14.64,11.41-14.83,8.17-24.57-2.65-34.83-11.8L15.44,121.95l1.01,2Z"/>
  <path class="cls-2" d="M16.68,7.26l144.72-.25c2.42-.56,8.74,4.39,8.4,6.38l-72.93,64.05c-3.33,2.25-9,2.14-12.67.77L10.89,14.58c-3-3.97,2.76-6.11,5.78-7.31Z"/>
  <path class="cls-2" d="M16.45,123.95l-1.01-2,49.98-49.92c10.27,9.15,20,19.98,34.83,11.8,2.68-1.48,12.89-12.19,14.64-11.41l49.48,49.53-1.01,2H16.45Z"/>
  <path class="cls-2" d="M7.95,23.02l51.96,44.47L10.97,116.48l-2.01.47c.29-.98-1.01-2.1-1.01-2.49V23.02Z"/>
  <polygon class="cls-2" points="170.87 116.96 119.88 66.51 170.87 23.02 170.87 116.96"/>
</svg>