<?xml version="1.0" encoding="UTF-8"?>
<svg id="Layer_1" data-name="Layer 1" xmlns="http://www.w3.org/2000/svg" viewBox="0 0 109.85 108.98">
  <circle cx="54.8" cy="54.55" r="24.88"/>
  <rect x="33.44" y="4.25" width="6.07" height="24.66" rx="3.03" ry="3.03" transform="translate(-3.58 17.64) rotate(-25.96)"/>
  <rect x="90.19" y="23.52" width="6.07" height="24.66" rx="3.03" ry="3.03" transform="translate(84.65 -63.66) rotate(64.04)"/>
  <rect x="49.41" y="8.93" width="6.07" height="14.95" rx="3.03" ry="3.03"/>
  <rect x="66.02" y="2" width="6.07" height="24.66" rx="3.03" ry="3.03" transform="translate(9.24 -23.03) rotate(20.27)"/>
  <rect x="77.2" y="18.27" width="6.07" height="14.95" rx="3.03" ry="3.03" transform="translate(43.31 -50) rotate(46.22)"/>
  <rect x="13.59" y="60.81" width="6.07" height="24.66" rx="3.03" ry="3.03" transform="translate(75.11 26.17) rotate(64.04)"/>
  <rect x="23.45" y="21.57" width="6.07" height="14.95" rx="3.03" ry="3.03" transform="translate(65.68 26.12) rotate(128.08)"/>
  <rect x="11.57" y="28.51" width="6.07" height="24.66" rx="3.03" ry="3.03" transform="translate(57.96 39.43) rotate(107.82)"/>
  <rect x="13.66" y="49.2" width="6.07" height="14.95" rx="3.03" ry="3.03" transform="translate(70.44 32.13) rotate(81.86)"/>
  <rect x="70.35" y="80.07" width="6.07" height="24.66" rx="3.03" ry="3.03" transform="translate(-33.04 41.44) rotate(-25.96)"/>
  <rect x="80.34" y="72.46" width="6.07" height="14.95" rx="3.03" ry="3.03" transform="translate(-30.97 96.25) rotate(-51.92)"/>
  <rect x="92.22" y="55.81" width="6.07" height="24.66" rx="3.03" ry="3.03" transform="translate(1.23 137.97) rotate(-72.18)"/>
  <rect x="90.13" y="44.83" width="6.07" height="14.95" rx="3.03" ry="3.03" transform="translate(54.58 151.93) rotate(-98.14)"/>
  <rect x="54.37" y="85.1" width="6.07" height="14.95" rx="3.03" ry="3.03" transform="translate(114.82 185.15) rotate(180)"/>
  <rect x="37.77" y="82.32" width="6.07" height="24.66" rx="3.03" ry="3.03" transform="translate(46.29 197.57) rotate(-159.73)"/>
  <rect x="26.59" y="75.76" width="6.07" height="14.95" rx="3.03" ry="3.03" transform="translate(-9.98 162.21) rotate(-133.78)"/>
</svg>