<?xml version="1.0" encoding="UTF-8"?>
<svg id="Layer_1" data-name="Layer 1" xmlns="http://www.w3.org/2000/svg" viewBox="0 0 87.75 84.32">
  <rect x="40.34" y="-2.56" width="6.8" height="89.43" rx="3.4" ry="3.4" transform="translate(17.31 -12.54) rotate(20.27)"/>
  <rect x="44.7" y=".59" width="6.07" height="20.07" rx="3.03" ry="3.03" transform="translate(1.63 26.92) rotate(-32.02)"/>
  <rect x="58.3" y="5.62" width="6.07" height="20.07" rx="3.03" ry="3.03" transform="translate(57.87 -47.55) rotate(72.55)"/>
  <rect x="36.87" y="63.44" width="6.07" height="20.07" rx="3.03" ry="3.03" transform="translate(112.69 114.61) rotate(147.98)"/>
  <rect x="23.27" y="58.41" width="6.07" height="20.07" rx="3.03" ry="3.03" transform="translate(-31.1 114.07) rotate(-107.45)"/>
  <rect x="40.39" y="-2.43" width="6.8" height="89.43" rx="3.4" ry="3.4" transform="translate(-16.73 35.7) rotate(-37.79)"/>
  <rect x="16.11" y="12.18" width="6.07" height="20.07" rx="3.03" ry="3.03" transform="translate(-3.04 41.38) rotate(-90.07)"/>
  <rect x="27.57" y="3.29" width="6.07" height="20.07" rx="3.03" ry="3.03" transform="translate(4.31 -7.24) rotate(14.5)"/>
  <rect x="65.3" y="52.07" width="6.07" height="20.07" rx="3.03" ry="3.03" transform="translate(130.36 -6.3) rotate(89.93)"/>
  <rect x="53.84" y="60.96" width="6.07" height="20.07" rx="3.03" ry="3.03" transform="translate(94.16 153.95) rotate(-165.5)"/>
  <rect x="40.47" y="-2.55" width="6.8" height="89.43" rx="3.4" ry="3.4" transform="translate(11.38 93.62) rotate(-101.59)"/>
  <rect x="11.95" y="45.39" width="6.07" height="20.07" rx="3.03" ry="3.03" transform="translate(4.03 111.77) rotate(-153.87)"/>
  <rect x="9.04" y="31.18" width="6.07" height="20.07" rx="3.03" ry="3.03" transform="translate(-27.05 23.5) rotate(-49.31)"/>
  <rect x="69.46" y="18.86" width="6.07" height="20.07" rx="3.03" ry="3.03" transform="translate(20.14 -28.97) rotate(26.13)"/>
  <rect x="72.37" y="33.07" width="6.07" height="20.07" rx="3.03" ry="3.03" transform="translate(157.25 14.03) rotate(130.69)"/>
</svg>