<?xml version="1.0" encoding="UTF-8"?>
<svg id="Layer_1" data-name="Layer 1" xmlns="http://www.w3.org/2000/svg" viewBox="0 0 122.35 144.95">
  <defs>
    <style>
      .cls-1 {
        stroke-linecap: round;
      }

      .cls-1, .cls-2 {
        fill: none;
        stroke: #000;
        stroke-miterlimit: 10;
        stroke-width: 3px;
      }
    </style>
  </defs>
  <path class="cls-2" d="M61.6.55l3.48,10.71h11.26c.77,0,1.09.99.47,1.44l-9.11,6.62,3.48,10.71c.24.73-.6,1.34-1.22.89l-9.11-6.62-9.11,6.62c-.62.45-1.46-.16-1.22-.89l3.48-10.71-9.11-6.62c-.62-.45-.3-1.44.47-1.44h11.26s3.48-10.71,3.48-10.71c.24-.73,1.27-.73,1.51,0Z"/>
  <path class="cls-1" d="M63.82,43.72c4.6,1.19,9.71.06,13.45-2.85.68-.53.51-1.61-.28-1.94-6.58-2.78-11.68-7.2-15.08-13.47-.5-.93-1.54-.63-2.13.25-4.41,6.65-10.08,12.24-17.75,15.8-.97.45-1.3,1.56-.39,2.12,1.36.83,2.85,1.46,4.39,1.84.72.18,1.09.98.76,1.64-3.26,6.43-9.96,10.98-17.11,11.78-1.07.12-1.44,1.46-.56,2.09,1.98,1.42,4.06,2.69,6.37,3.43,2.93.93,6.35.83,8.89-.79.58-.37,1.32-.19,1.66.4,1.8,3.21,5.13,5.54,8.78,6.06,4.1.59,7.66-1.96,11.04-4.35,2.6-1.84,2.89-1.82,4.57-2.76.44-.24.97-.14,1.33.2,3.25,3.07,8.07,4.4,12.43,3.37,3.66-.86,6.87-3.36,8.72-6.63.5-.89-.31-1.97-1.3-1.69-3.95,1.14-8.56-.13-11.96-2.64-4.13-3.06-6.18-6.47-8.78-10.9"/>
  <path class="cls-1" d="M84.4,67.55c4.11,11.27,13.46,19.12,24.99,22.39.71.2.85,1.18.21,1.56-5.38,3.21-12.6,3.2-17.93-.11-.45-.28-1.05-.05-1.23.45-2.11,5.91-8.99,9.83-15.15,8.39"/>
  <path class="cls-1" d="M39.73,66.4c-4.11,11.27-13.9,20.27-25.43,23.54-.71.2-.85,1.18-.21,1.56,5.38,3.21,12.6,3.2,17.93-.11.45-.28,1.05-.05,1.23.45,2.11,5.91,8.99,9.83,15.15,8.39"/>
  <path class="cls-1" d="M94.71,93.73c.99,8.82,8.98,16.26,17.79,16.83.52.03.79.65.46,1.06-3.77,4.67-10.83,6.46-16.32,3.97"/>
  <path class="cls-1" d="M26.71,93.92c-2.45,8.53-11.58,14.52-20.37,13.6-.52-.05-.89.51-.64.97,2.93,5.23,9.59,8.19,15.43,6.65"/>
  <path class="cls-1" d="M107.89,116.31l12.8,12.49"/>
  <path class="cls-1" d="M14,115.25c-3.55,4.34-7.52,8.35-11.82,11.95-.84.7-.92,1.99-.12,2.74,4.87,4.56,11.74,6.61,18.31,5.29.5-.1,1.01,0,1.43.29,6.54,4.44,15.76,4.54,22.42.3.67-.43,1.56-.37,2.15.16,4.06,3.63,9.41,5.79,14.85,5.96,5.45.17,10.93-1.66,15.21-5.03.62-.49,1.49-.49,2.14-.04,4.48,3.15,10.63,3.84,15.67,1.66,2.68-1.16,4.81-3.88,7.71-4.21,2.6-.3,5.48,1.54,8.1,1.65,4.54.19,9.05-2.67,10.8-6.86"/>
  <path class="cls-1" d="M42.23,43.92c3.68,1.51,7.63,2.36,11.6,2.49"/>
  <circle cx="45.91" cy="76.4" r="3.68"/>
  <circle cx="75.3" cy="90.24" r="3.68"/>
  <circle cx="31.03" cy="125.83" r="3.68"/>
  <circle cx="58.66" cy="109.45" r="3.04"/>
  <circle cx="81.23" cy="115.54" r="3.04"/>
  <polygon points="38.11 110.7 36.28 109.45 34.29 110.41 34.13 112.61 35.95 113.86 37.94 112.9 38.11 110.7"/>
  <polygon points="31.62 106.27 29.79 105.03 27.81 105.99 27.64 108.19 29.46 109.43 31.45 108.47 31.62 106.27"/>
  <polygon points="32.94 81.43 31.03 80.33 29.12 81.43 29.12 83.64 31.03 84.74 32.94 83.64 32.94 81.43"/>
  <polygon points="40.03 84.2 38.11 83.1 36.2 84.2 36.2 86.41 38.11 87.51 40.03 86.41 40.03 84.2"/>
  <polygon points="47.82 85.84 45.91 84.74 44 85.84 44 88.05 45.91 89.15 47.82 88.05 47.82 85.84"/>
  <polygon points="55.91 86.41 54 85.31 52.08 86.41 52.08 88.62 54 89.72 55.91 88.62 55.91 86.41"/>
  <polygon points="63.61 85.46 61.7 84.35 59.79 85.46 59.79 87.67 61.7 88.77 63.61 87.67 63.61 85.46"/>
  <polygon points="71.37 82.83 69.46 81.73 67.55 82.83 67.55 85.04 69.46 86.14 71.37 85.04 71.37 82.83"/>
  <polygon points="78.45 79.22 76.54 78.12 74.63 79.22 74.63 81.43 76.54 82.53 78.45 81.43 78.45 79.22"/>
  <polygon points="85.1 75.29 83.18 74.19 81.27 75.29 81.27 77.5 83.18 78.6 85.1 77.5 85.1 75.29"/>
  <polygon points="79.69 55.8 77.78 54.69 75.87 55.8 75.87 58.01 77.78 59.11 79.69 58.01 79.69 55.8"/>
  <polygon points="71.95 57.48 70.04 56.37 68.13 57.48 68.13 59.68 70.04 60.79 71.95 59.68 71.95 57.48"/>
  <polygon points="63.45 57.48 61.54 56.37 59.63 57.48 59.63 59.68 61.54 60.79 63.45 59.68 63.45 57.48"/>
  <polygon points="54.95 55.41 53.04 54.31 51.13 55.41 51.13 57.62 53.04 58.72 54.95 57.62 54.95 55.41"/>
  <polygon points="46.37 51.39 44.2 51.82 43.49 53.91 44.94 55.57 47.11 55.15 47.82 53.06 46.37 51.39"/>
  <polygon points="26.05 100.34 24.14 99.23 22.23 100.34 22.22 102.54 24.14 103.65 26.05 102.54 26.05 100.34"/>
  <polygon points="44.68 115.18 42.86 113.94 40.87 114.9 40.7 117.1 42.53 118.34 44.52 117.38 44.68 115.18"/>
  <polygon points="51.6 119.4 49.78 118.16 47.79 119.12 47.63 121.32 49.45 122.56 51.44 121.6 51.6 119.4"/>
  <polygon points="58.66 122.67 56.83 121.43 54.85 122.38 54.68 124.58 56.5 125.83 58.49 124.87 58.66 122.67"/>
  <polygon points="66.71 124.87 64.88 123.63 62.89 124.58 62.73 126.79 64.55 128.03 66.54 127.07 66.71 124.87"/>
  <polygon points="74.51 126.35 72.69 125.1 70.7 126.06 70.54 128.26 72.36 129.51 74.35 128.55 74.51 126.35"/>
  <polygon points="82.32 127.07 80.5 125.83 78.51 126.79 78.34 128.99 80.17 130.23 82.15 129.27 82.32 127.07"/>
  <polygon points="90.53 127.07 88.71 125.83 86.72 126.79 86.55 128.99 88.38 130.23 90.36 129.27 90.53 127.07"/>
  <polygon points="98.68 126.35 96.86 125.1 94.87 126.06 94.71 128.26 96.53 129.51 98.52 128.55 98.68 126.35"/>
  <polygon points="106.57 124.15 104.75 122.9 102.76 123.86 102.59 126.06 104.42 127.3 106.41 126.35 106.57 124.15"/>
  <polygon points="113.99 122.3 112.17 121.05 110.18 122.01 110.01 124.21 111.84 125.45 113.83 124.5 113.99 122.3"/>
</svg>