<?xml version="1.0" encoding="UTF-8"?>
<svg id="Layer_1" data-name="Layer 1" xmlns="http://www.w3.org/2000/svg" viewBox="0 0 88.62 128.85">
  <defs>
    <style>
      .cls-1 {
        fill: none;
      }

      .cls-2 {
        fill: #231f20;
      }
    </style>
  </defs>
  <path class="cls-2" d="M1.75,83.97s0,27.79,23.22,39.92c10.42,5.44,22.69,6.45,33.86,2.77,12.52-4.13,27.92-15.23,29.79-44.72l-10.15,5.27-13.09-7.02-13.83,8.59-15.08-9.09-13.67,9.22-14.66-8.72-6.39,3.78Z"/>
  <g>
    <path d="M88.06,68.29l-3.03-.55,3.24-7.27c.15-.33-.14-.69-.49-.62l-4.93.93.76-6.86c.04-.4-.39-.69-.74-.48l-8.51,5.03-1.09-3.79s14.37-24.38-14.37-41.79l5.66-1.74s-12.03-8.63-20.94-4.06L45.19.05s-11.31-1.52-13.7,12.62c0,0-28.53,11.29-15.67,41.79l-1.09,4.01-7.92-4.69c-.56-.33-1.26.15-1.15.79l1.02,5.76-4.86-.72c-.44-.07-.78.38-.6.79l3.28,7.33H.71c-.56,0-.9.61-.6,1.09,1.46,2.35,4.26,8.82,12.66,9.14h0l10.72,6.85,12.9-8.93,15.45,9.08,13.2-8.85,10.12,5.57.72-3.07s11.77-2.68,12.68-9.66c.04-.32-.19-.61-.51-.67ZM34.19,39.83c-.15-.41-.14-.86-.26-1.28-.13-.44-.34-.84-.61-1.21-.64-.85-1.61-1.43-2.66-1.62-1.57-.28-3.21.35-4.21,1.58-.47.58-.66,1.3-.89,1.99-.23.7-.6,1.85-1.54,1.73-.55-.07-.9-.47-1.06-.95-.1-.3-.12-.62-.07-.92.18-.94.48-1.93.96-2.77,1.88-3.26,6.24-4.2,9.45-2.42,1.06.59,1.91,1.49,2.49,2.55.44.81.72,1.69.9,2.59.33,1.62-1.94,2.24-2.5.72ZM44.29,59.23l-8.34-9.91,8.39-8.29,8.29,8.29-8.34,9.91ZM64.97,39.83c-.15-.41-.14-.86-.26-1.28-.13-.44-.34-.84-.61-1.21-.64-.85-1.61-1.43-2.66-1.62-1.57-.28-3.21.35-4.21,1.58-.47.58-.66,1.3-.89,1.99-.23.7-.6,1.85-1.54,1.73-.55-.07-.9-.47-1.06-.95-.1-.3-.12-.62-.07-.92.18-.94.48-1.93.96-2.77,1.88-3.26,6.24-4.2,9.45-2.42,1.06.59,1.91,1.49,2.49,2.55.44.81.72,1.69.9,2.59.33,1.62-1.94,2.24-2.5.72Z"/>
    <path class="cls-1" d="M67.46,39.12c-.18-.9-.46-1.78-.9-2.59-.58-1.06-1.43-1.96-2.49-2.55-3.21-1.78-7.56-.84-9.45,2.42-.48.83-.79,1.82-.96,2.77-.06.3-.03.62.07.92.16.48.52.88,1.06.95.94.13,1.31-1.02,1.54-1.73.23-.69.43-1.41.89-1.99,1-1.24,2.63-1.87,4.21-1.58,1.04.19,2.02.77,2.66,1.62.27.36.48.77.61,1.21.12.42.11.86.26,1.28.56,1.53,2.82.91,2.5-.72Z"/>
    <path class="cls-1" d="M36.69,39.12c-.18-.9-.46-1.78-.9-2.59-.58-1.06-1.43-1.96-2.49-2.55-3.21-1.78-7.56-.84-9.45,2.42-.48.83-.79,1.82-.96,2.77-.06.3-.03.62.07.92.16.48.52.88,1.06.95.94.13,1.31-1.02,1.54-1.73.23-.69.43-1.41.89-1.99,1-1.24,2.63-1.87,4.21-1.58,1.04.19,2.02.77,2.66,1.62.27.36.48.77.61,1.21.12.42.11.86.26,1.28.56,1.53,2.82.91,2.5-.72Z"/>
    <polygon class="cls-1" points="44.34 41.04 35.95 49.33 44.29 59.23 52.63 49.33 44.34 41.04"/>
  </g>
</svg>