<?xml version="1.0" encoding="UTF-8"?>
<svg id="Layer_1" data-name="Layer 1" xmlns="http://www.w3.org/2000/svg" viewBox="0 0 81.59 85.54">
  <path d="M2.78,38.3h34.35v47.24H7.9c-2.83,0-5.12-2.3-5.12-5.12v-42.11h0Z"/>
  <path d="M44.46,38.3h34.35v42.14c0,2.81-2.28,5.1-5.1,5.1h-29.26v-47.24h0Z"/>
  <path d="M4.07,19.13h33.06v14.73H0v-10.65c0-2.25,1.83-4.07,4.07-4.07Z"/>
  <path d="M44.46,19.13h33.05c2.25,0,4.08,1.83,4.08,4.08v10.64h-37.13v-14.73h0Z"/>
  <path d="M61.18,1.1c-4.93-1.38-10.69.49-13.73,4.64-1.29,1.75-4.78,10.82-8.23,7.42-1.18-1.16-1.65-2.88-2.5-4.28C34.05,4.49,29.75.76,24.51.08c-6.3-.82-13.6,4.91-12.29,11.63.64,3.26,3.05,5.49,6.05,6.67,3.17,1.25,6.67,1.55,10.04,1.62,4.39.1,8.78.21,13.18.31s8.73.43,13.05.19c3.49-.19,7.05-.99,9.86-3.07s4.7-5.63,4.07-9.06c-.56-3.08-3.03-5.57-5.91-6.79-.45-.19-.92-.36-1.39-.49ZM28.41,16.63c-2.02-.17-4.07-.47-5.89-1.37-1.82-.9-3.39-2.48-3.84-4.46-.45-1.98.45-4.3,2.31-5.1,1.22-.52,2.66-.35,3.87.2,1.21.55,2.23,1.43,3.2,2.35,2.8,2.67,5.26,5.7,7.28,9-2.21-.07-4.65-.42-6.93-.61ZM60.82,13.22c-1.02.85-2.26,1.39-3.51,1.85-3.62,1.36-7.42,2.26-11.27,2.64,1.02-1.96,2.4-4,3.56-5.97,1.03-1.75,2.2-3.46,3.8-4.7s3.71-1.97,5.69-1.52c1.98.45,3.68,2.28,3.59,4.3-.06,1.33-.84,2.54-1.86,3.4Z"/>
</svg>