<?xml version="1.0" encoding="UTF-8"?>
<svg id="Layer_1" data-name="Layer 1" xmlns="http://www.w3.org/2000/svg" viewBox="0 0 195.05 56.19">
  <defs>
    <style>
      .cls-1 {
        fill: #fff;
      }

      .cls-2 {
        fill: #c62727;
      }
    </style>
  </defs>
  <g>
    <path class="cls-1" d="M53.89,17.44h27.92l5.72-12.29h-9.49l-1.54,2.51H19.83l-2.23-2.51H4.05L0,12.55l6,6,7.54-.14,1.9.08,1.84,2.25-1.94,4.14-5.99,11.4,1.54,2.09h10.89l6-13.12h11.87l1.4-1.95M40.97,19.28l-2.21,3.68h-9.41v-.98l2.35-4.9.82-.12c-.68,2.56,1,4.53,1,4.53h1.08c-.86-2.97.31-4.51.71-4.93l.86-.12h4.02l.78,1.57v1.27ZM78.89,12.61H7.42l.34-1.98h71.81l-.69,1.98Z"/>
    <polygon class="cls-1" points="21.61 4.73 24.02 0 36.75 0 38.21 2.07 50.68 2.07 49.65 4.73 21.61 4.73"/>
  </g>
  <polygon class="cls-2" points="87.54 10.63 86.06 13.78 185.32 12.21 87.54 10.63"/>
  <g>
    <path class="cls-1" d="M54.04,32.37v-8.7h2.69v6.44h6.73l-1.73,2.26h-7.7Z"/>
    <path class="cls-1" d="M68.07,32.37l1.61-2.26h3.74l-2.46-3.55-4.12,5.81h-3.15l5.58-7.87c.38-.52.9-.98,1.73-.98s1.34.43,1.72.98l5.45,7.87h-10.1Z"/>
    <path class="cls-1" d="M79.57,32.37l1.73-2.26h6.66c.55,0,.79-.17.79-.56s-.26-.57-.82-.57h-4.71c-2.12,0-3.34-.96-3.34-2.61,0-1.79,1.21-2.69,3.67-2.69h7.61l-1.73,2.26h-6.08c-.56,0-.82.18-.82.56s.26.57.82.57h4.75c2.16,0,3.3.87,3.3,2.52,0,1.91-1.09,2.78-3.51,2.78h-8.31Z"/>
    <path class="cls-1" d="M96.28,27.05h6.88l-1.56,1.92h-5.32v1.13h7.4l-1.72,2.26h-8.37v-8.7h10.08l-1.74,2.26h-5.64v1.12Z"/>
    <path class="cls-1" d="M115.27,29.69l2.63,2.68h-3.55l-2.18-2.31h-3.94v2.31h-2.68v-4.49h7.71c.99,0,1.42-.29,1.42-.94,0-.7-.46-1.01-1.43-1.01h-7.7l1.79-2.26h5.64c2.73,0,4.38,1.18,4.38,3.17,0,1.35-.77,2.34-2.09,2.85Z"/>
    <path class="cls-1" d="M124.58,32.37c-3,0-5.24-1.9-5.24-4.43s2.17-4.26,5.24-4.26h6.21l-1.74,2.26h-4.47c-1.46,0-2.56.9-2.56,2.12s1.03,2.05,2.56,2.05h3.28v-1.16h-4.39l1.66-1.88h5.42v5.3h-5.97Z"/>
    <path class="cls-1" d="M136.74,32.37l1.61-2.26h3.74l-2.46-3.55-4.12,5.81h-3.15l5.58-7.87c.38-.52.9-.98,1.73-.98s1.34.43,1.72.98l5.45,7.87h-10.1Z"/>
    <path class="cls-1" d="M161.35,32.37l-1.38-5.04-2.26,4.21c-.4.73-.82.97-1.61.97s-1.22-.25-1.61-.97l-2.21-4.21-1.42,5.04h-2.73l2.26-7.63c.22-.77.78-1.21,1.53-1.21.62,0,1.12.31,1.46.91l2.77,5.16,2.78-5.16c.32-.6.83-.91,1.46-.91.74,0,1.33.47,1.53,1.21l2.21,7.63h-2.78Z"/>
    <path class="cls-1" d="M168.78,27.05h6.88l-1.56,1.92h-5.32v1.13h7.4l-1.72,2.26h-8.37v-8.7h10.08l-1.74,2.26h-5.64v1.12Z"/>
  </g>
  <g>
    <path class="cls-1" d="M57.67,45.98c-2.31,0-4.03-1.46-4.03-3.41s1.67-3.28,4.03-3.28h4.68l-1.32,1.74h-3.36c-1.29,0-1.97.53-1.97,1.54s.73,1.67,1.97,1.67h4.68l-1.32,1.74h-3.36Z"/>
    <path class="cls-1" d="M66.03,41.89h5.29l-1.2,1.48h-4.09v.87h5.69l-1.32,1.74h-6.44v-6.69h7.75l-1.34,1.74h-4.34v.86Z"/>
    <path class="cls-1" d="M73.28,40.44c0-.78.43-1.26,1.13-1.26.31,0,.55.1.82.35l4.01,3.66v-3.9h1.98v5.55c0,.77-.43,1.26-1.13,1.26-.31,0-.55-.11-.83-.37l-3.99-3.64v3.89h-1.99v-5.54Z"/>
    <path class="cls-1" d="M86.05,45.98v-4.95h-3.31l1.36-1.74h7.48l-1.36,1.74h-2.11v4.95h-2.06Z"/>
    <path class="cls-1" d="M95.21,41.89h5.29l-1.2,1.48h-4.09v.87h5.69l-1.32,1.74h-6.44v-6.69h7.75l-1.34,1.74h-4.34v.86Z"/>
    <path class="cls-1" d="M109.94,43.92l2.02,2.06h-2.73l-1.68-1.78h-3.03v1.78h-2.06v-3.45h5.93c.76,0,1.09-.22,1.09-.72,0-.54-.35-.78-1.1-.78h-5.92l1.38-1.74h4.34c2.1,0,3.37.91,3.37,2.44,0,1.04-.59,1.8-1.61,2.19Z"/>
    <path class="cls-1" d="M127.87,42.63c0,2.34-1.58,3.46-4.9,3.46s-4.88-1.11-4.88-3.46,1.56-3.45,4.88-3.45,4.9,1.11,4.9,3.45ZM120.16,42.63c0,1.36.6,1.72,2.82,1.72s2.83-.36,2.83-1.72-.58-1.71-2.83-1.71-2.82.36-2.82,1.71Z"/>
    <path class="cls-1" d="M131.87,42.02l3.33-2.73h2.8l-4.01,3.17,4.24,3.52h-2.97l-3.39-2.89v2.89h-2.07v-6.69h2.07v2.73Z"/>
    <path class="cls-1" d="M139.4,45.98l1.33-1.74h5.12c.42,0,.61-.13.61-.43s-.2-.44-.63-.44h-3.62c-1.63,0-2.57-.74-2.57-2.01,0-1.38.93-2.07,2.82-2.07h5.85l-1.33,1.74h-4.68c-.43,0-.63.14-.63.43s.2.44.63.44h3.65c1.66,0,2.54.67,2.54,1.94,0,1.47-.84,2.14-2.7,2.14h-6.39Z"/>
    <path class="cls-1" d="M150.26,45.98v-4.09h5.94c.37,0,.56-.15.56-.44,0-.27-.19-.42-.55-.42h-5.95l1.42-1.74h4.41c1.67,0,2.63.68,2.63,1.84,0,.62-.25,1.13-.67,1.44.51.31.81.85.81,1.49,0,1.29-.9,1.92-2.73,1.92h-5.87ZM152.33,43.36v.88h3.88c.39,0,.58-.15.58-.43,0-.3-.2-.45-.59-.45h-3.87Z"/>
    <path class="cls-1" d="M162.19,46.35l.46-.63c-1.46-.5-2.16-1.52-2.16-3.09,0-2.34,1.56-3.45,4.88-3.45.72,0,1.36.05,1.91.16l.31-.43h.98l-.46.64c1.46.5,2.16,1.52,2.16,3.08,0,2.34-1.58,3.46-4.9,3.46-.69,0-1.3-.05-1.84-.15l-.29.41h-1.05ZM162.55,42.63c0,.94.28,1.4,1.18,1.6l2.39-3.29c-.23,0-.48-.02-.75-.02-2.23,0-2.82.36-2.82,1.71ZM167.04,41.05l-2.36,3.29c.21,0,.44,0,.69,0,2.24,0,2.83-.36,2.83-1.72,0-.93-.27-1.39-1.16-1.58Z"/>
    <path class="cls-1" d="M172.19,45.98v-6.69h2.07v4.95h5.18l-1.33,1.74h-5.92Z"/>
  </g>
  <polygon class="cls-2" points="181.15 3.41 185.42 8.03 188.34 2.46 188.09 8.75 194.1 6.88 189.48 11.15 195.05 14.07 188.76 13.83 190.63 19.83 186.36 15.21 183.44 20.78 183.69 14.49 177.68 16.36 182.3 12.09 176.73 9.17 183.02 9.42 181.15 3.41"/>
</svg>