<?xml version="1.0" encoding="UTF-8"?>
<svg id="Layer_1" data-name="Layer 1" xmlns="http://www.w3.org/2000/svg" viewBox="0 0 195.05 56.19">
  <defs>
    <style>
      .cls-1, .cls-2, .cls-3 {
        fill: #fff;
      }

      .cls-4 {
        letter-spacing: 0em;
      }

      .cls-5 {
        fill: #c62727;
      }

      .cls-6 {
        letter-spacing: .08em;
      }

      .cls-7 {
        letter-spacing: .07em;
      }

      .cls-8 {
        letter-spacing: .08em;
      }

      .cls-9 {
        letter-spacing: .08em;
      }

      .cls-10 {
        letter-spacing: .09em;
      }

      .cls-11 {
        letter-spacing: .06em;
      }

      .cls-2 {
        font-size: 10px;
      }

      .cls-2, .cls-3 {
        font-family: Ethnocentric-Regular, Ethnocentric;
      }

      .cls-3 {
        font-size: 13px;
      }
    </style>
  </defs>
  <g>
    <path class="cls-1" d="M53.89,17.44h27.92l5.72-12.29h-9.49l-1.54,2.51H19.83l-2.23-2.51H4.05L0,12.55l6,6,7.54-.14,1.9.08,1.84,2.25-1.94,4.14-5.99,11.4,1.54,2.09h10.89l6-13.12h11.87l1.4-1.95M40.97,19.28l-2.21,3.68h-9.41v-.98l2.35-4.9.82-.12c-.68,2.56,1,4.53,1,4.53h1.08c-.86-2.97.31-4.51.71-4.93l.86-.12h4.02l.78,1.57v1.27ZM78.89,12.61H7.42l.34-1.98h71.81l-.69,1.98Z"/>
    <polygon class="cls-1" points="21.61 4.73 24.02 0 36.75 0 38.21 2.07 50.68 2.07 49.65 4.73 21.61 4.73"/>
  </g>
  <polygon class="cls-5" points="87.54 10.63 86.06 13.78 185.32 12.21 87.54 10.63"/>
  <text class="cls-3" transform="translate(53.22 32.37)"><tspan class="cls-4" x="0" y="0">L</tspan><tspan class="cls-7" x="10.34" y="0">ASE</tspan><tspan class="cls-11" x="51.53" y="0">R</tspan><tspan class="cls-6" x="65.57" y="0">GAME </tspan></text>
  <text class="cls-2" transform="translate(53.22 45.98)"><tspan class="cls-10" x="0" y="0">CENTER OK</tspan><tspan class="cls-9" x="85.94" y="0">S</tspan><tspan class="cls-8" x="96.41" y="0">B</tspan><tspan class="cls-10" x="106.85" y="0">ØL</tspan></text>
  <polygon class="cls-5" points="181.15 3.41 185.42 8.03 188.34 2.46 188.09 8.75 194.1 6.88 189.48 11.15 195.05 14.07 188.76 13.83 190.63 19.83 186.36 15.21 183.44 20.78 183.69 14.49 177.68 16.36 182.3 12.09 176.73 9.17 183.02 9.42 181.15 3.41"/>
</svg>