<?xml version="1.0" encoding="UTF-8"?>
<svg id="Layer_1" data-name="Layer 1" xmlns="http://www.w3.org/2000/svg" viewBox="0 0 209 138.62">
  <defs>
    <style>
      .cls-1 {
        fill: red;
      }
    </style>
  </defs>
  <path class="cls-1" d="M190.32,0H18.68C8.38,0,0,8.38,0,18.68v101.25c0,10.3,8.38,18.69,18.68,18.69h171.63c10.3,0,18.68-8.38,18.68-18.69V18.68c0-10.3-8.38-18.68-18.68-18.68ZM63.62,65.06L13.42,113.01V30.17l50.2,34.9ZM74.87,72.88l25.81,17.94c1.15.8,2.49,1.2,3.83,1.2s2.68-.4,3.83-1.2l25.8-17.94,54.78,52.32H20.09l54.78-52.32ZM145.38,65.07l50.2-34.9v82.85l-50.2-47.95ZM190.32,13.42c1.43,0,2.73.58,3.68,1.51l-89.49,62.21L15.01,14.93c.95-.93,2.25-1.51,3.68-1.51h171.63Z"/>
</svg>