<?xml version="1.0" encoding="UTF-8"?>
<svg id="Layer_1" data-name="Layer 1" xmlns="http://www.w3.org/2000/svg" viewBox="0 0 128.51 128.51">
  <defs>
    <style>
      .cls-1 {
        fill: red;
      }
    </style>
  </defs>
  <path class="cls-1" d="M113.45,3.03c-20.78-9.55-52.2,4.19-79.21,31.2C7.23,61.26-6.52,92.67,3.03,113.45l25.72-25.72c-.3-.28-.56-.53-.68-.64-5.12-5.13-.63-12.65,22.63-36.38,22.16-23.12,31.26-27.76,36.39-22.63.12.11.37.38.65.68L113.45,3.03Z"/>
  <path class="cls-1" d="M16.5,126.91c2.13,2.14,5.59,2.14,7.72,0l17.76-17.76c2.13-2.13,2.13-5.58,0-7.72l-10.04-10.04-25.49,25.49,10.04,10.04Z"/>
  <path class="cls-1" d="M101.42,41.99c2.14,2.13,5.6,2.13,7.72,0l17.77-17.76c2.13-2.13,2.13-5.59,0-7.72l-10.04-10.05-25.48,25.49,10.04,10.04Z"/>
</svg>